<svg width="39" height="39" viewBox="0 0 39 39" fill="none" xmlns="http://www.w3.org/2000/svg">
<path fill-rule="evenodd" clip-rule="evenodd" d="M9.75 19.5001C9.75 19.1768 9.8784 18.8668 10.107 18.6383C10.3355 18.4097 10.6455 18.2813 10.9688 18.2813H25.0892L19.8559 13.0505C19.627 12.8216 19.4985 12.5112 19.4985 12.1876C19.4985 11.8639 19.627 11.5535 19.8559 11.3247C20.0847 11.0959 20.3951 10.9673 20.7188 10.9673C21.0424 10.9673 21.3528 11.0959 21.5816 11.3247L28.8941 18.6372C29.0076 18.7504 29.0977 18.8849 29.1591 19.033C29.2206 19.181 29.2522 19.3398 29.2522 19.5001C29.2522 19.6604 29.2206 19.8191 29.1591 19.9672C29.0977 20.1152 29.0076 20.2497 28.8941 20.363L21.5816 27.6755C21.3528 27.9043 21.0424 28.0329 20.7188 28.0329C20.3951 28.0329 20.0847 27.9043 19.8559 27.6755C19.627 27.4466 19.4985 27.1362 19.4985 26.8126C19.4985 26.4889 19.627 26.1785 19.8559 25.9497L25.0892 20.7188H10.9688C10.6455 20.7188 10.3355 20.5904 10.107 20.3619C9.8784 20.1333 9.75 19.8233 9.75 19.5001Z" fill="#FCB900"/>
</svg>
