<svg width="33" height="33" viewBox="0 0 33 33" fill="none" xmlns="http://www.w3.org/2000/svg">
<g clip-path="url(#clip0_23_64)">
<path d="M16.8836 2.29553C16.6374 2.19685 16.3626 2.19685 16.1164 2.29553L3.80737 7.21872L8.76562 9.20078L21.4583 4.12497L16.8836 2.29553ZM24.2344 5.23666L11.5417 10.3125L16.5 12.2945L29.1926 7.21872L24.2344 5.23666ZM30.9375 8.7429L17.5312 14.1054V30.4445L30.9375 25.082V8.7429ZM15.4688 30.4466V14.1033L2.0625 8.7429V25.0841L15.4688 30.4466ZM15.3512 0.379468C16.0887 0.0845294 16.9113 0.0845294 17.6488 0.379468L32.3524 6.26172C32.5435 6.33833 32.7074 6.47043 32.8228 6.64099C32.9382 6.81155 33 7.01277 33 7.21872V25.0841C32.9997 25.4962 32.876 25.8988 32.6448 26.24C32.4135 26.5811 32.0854 26.8452 31.7027 26.9981L16.8836 32.9257C16.6374 33.0244 16.3626 33.0244 16.1164 32.9257L1.29937 26.9981C0.916268 26.8455 0.587694 26.5816 0.356074 26.2404C0.124455 25.8992 0.000425554 25.4965 0 25.0841L0 7.21872C4.79324e-05 7.01277 0.061759 6.81155 0.177183 6.64099C0.292607 6.47043 0.456457 6.33833 0.647625 6.26172L15.3512 0.379468Z" fill="#16B666"/>
</g>
<defs>
<clipPath id="clip0_23_64">
<rect width="33" height="33" fill="white"/>
</clipPath>
</defs>
</svg>
