<svg width="34" height="33" viewBox="0 0 34 33" fill="none" xmlns="http://www.w3.org/2000/svg">
<path d="M22.1109 3.39695C22.1507 3.26748 22.1646 3.13144 22.1518 2.99659C22.1391 2.86174 22.0999 2.73073 22.0365 2.61103C21.9731 2.49133 21.8868 2.38528 21.7824 2.29895C21.678 2.21262 21.5577 2.1477 21.4282 2.10788C21.2987 2.06807 21.1627 2.05414 21.0278 2.0669C20.893 2.07966 20.762 2.11886 20.6423 2.18225C20.5226 2.24565 20.4165 2.332 20.3302 2.43637C20.2439 2.54075 20.1789 2.6611 20.1391 2.79057L11.8891 29.6031C11.8087 29.8645 11.8355 30.1472 11.9635 30.389C12.0915 30.6307 12.3103 30.8117 12.5718 30.8921C12.8333 30.9725 13.116 30.9458 13.3577 30.8178C13.5995 30.6897 13.7805 30.4709 13.8609 30.2094L22.1109 3.39695ZM10.5114 8.55113C10.6074 8.64693 10.6836 8.76073 10.7356 8.88601C10.7876 9.0113 10.8143 9.14561 10.8143 9.28126C10.8143 9.4169 10.7876 9.55122 10.7356 9.6765C10.6836 9.80179 10.6074 9.91559 10.5114 10.0114L4.02068 16.5L10.5114 22.9886C10.705 23.1823 10.8138 23.4449 10.8138 23.7188C10.8138 23.9926 10.705 24.2552 10.5114 24.4489C10.3177 24.6425 10.0551 24.7513 9.78125 24.7513C9.5074 24.7513 9.24476 24.6425 9.05112 24.4489L1.83237 17.2301C1.73634 17.1343 1.66014 17.0205 1.60815 16.8953C1.55616 16.77 1.5294 16.6357 1.5294 16.5C1.5294 16.3644 1.55616 16.2301 1.60815 16.1048C1.66014 15.9795 1.73634 15.8657 1.83237 15.7699L9.05112 8.55113C9.14692 8.4551 9.26072 8.3789 9.386 8.32691C9.51129 8.27493 9.6456 8.24817 9.78125 8.24817C9.91689 8.24817 10.0512 8.27493 10.1765 8.32691C10.3018 8.3789 10.4156 8.4551 10.5114 8.55113ZM23.4886 8.55113C23.3926 8.64693 23.3164 8.76073 23.2644 8.88601C23.2124 9.0113 23.1857 9.14561 23.1857 9.28126C23.1857 9.4169 23.2124 9.55122 23.2644 9.6765C23.3164 9.80179 23.3926 9.91559 23.4886 10.0114L29.9793 16.5L23.4886 22.9886C23.3927 23.0845 23.3167 23.1983 23.2648 23.3236C23.2129 23.4489 23.1862 23.5832 23.1862 23.7188C23.1862 23.8544 23.2129 23.9886 23.2648 24.1139C23.3167 24.2392 23.3927 24.353 23.4886 24.4489C23.5845 24.5448 23.6983 24.6208 23.8236 24.6727C23.9489 24.7246 24.0832 24.7513 24.2187 24.7513C24.3543 24.7513 24.4886 24.7246 24.6139 24.6727C24.7392 24.6208 24.853 24.5448 24.9489 24.4489L32.1676 17.2301C32.2637 17.1343 32.3399 17.0205 32.3918 16.8953C32.4438 16.77 32.4706 16.6357 32.4706 16.5C32.4706 16.3644 32.4438 16.2301 32.3918 16.1048C32.3399 15.9795 32.2637 15.8657 32.1676 15.7699L24.9489 8.55113C24.8531 8.4551 24.7393 8.3789 24.614 8.32691C24.4887 8.27493 24.3544 8.24817 24.2187 8.24817C24.0831 8.24817 23.9488 8.27493 23.8235 8.32691C23.6982 8.3789 23.5844 8.4551 23.4886 8.55113Z" fill="#16B666"/>
</svg>
