<svg width="43" height="42" viewBox="0 0 43 42" fill="none" xmlns="http://www.w3.org/2000/svg">
<g clip-path="url(#clip0_58_91)">
<path fill-rule="evenodd" clip-rule="evenodd" d="M21.125 0C9.533 0 0.125 9.408 0.125 21C0.125 32.592 9.533 42 21.125 42C32.696 42 42.125 32.592 42.125 21C42.125 9.408 32.696 0 21.125 0ZM34.9955 9.681C37.5811 12.8289 39.0122 16.7664 39.0511 20.8399C38.4579 20.727 32.5359 19.5195 26.5693 20.2703C26.4328 19.9762 26.3172 19.656 26.1807 19.3384C25.8159 18.4721 25.4064 17.5849 24.9969 16.7396C31.6014 14.0542 34.6096 10.1824 34.9981 9.67838L34.9955 9.681ZM21.125 3.0975C25.6794 3.0975 29.8479 4.80375 33.0163 7.60725C32.696 8.064 29.9844 11.6839 23.6082 14.0752C20.6683 8.67825 17.4132 4.25775 16.9119 3.57525C18.2931 3.25396 19.7069 3.09364 21.125 3.0975ZM13.4941 4.78275C15.8983 8.11364 18.1189 11.5733 20.1459 15.1462C11.7642 17.3775 4.36175 17.3329 3.56375 17.3329C4.14181 14.6183 5.33864 12.0738 7.06105 9.89741C8.78346 7.72106 10.985 5.96902 13.4941 4.78275ZM3.17788 21.0263V20.475C3.95225 20.5013 12.6541 20.6141 21.6054 17.9261C22.1277 18.9263 22.6055 19.9526 23.0623 20.9764L22.3535 21.1811C13.1083 24.1658 8.189 32.319 7.77688 33.0041C4.81606 29.7162 3.17771 25.4482 3.17788 21.0236V21.0263ZM21.125 38.9471C17.1396 38.9503 13.2677 37.6197 10.1263 35.1671C10.4412 34.5056 14.0874 27.4916 24.1989 23.961C24.2461 23.9374 24.2671 23.9374 24.3144 23.9164C26.0182 28.3171 27.2989 32.8702 28.139 37.5139C25.924 38.4674 23.5365 38.9553 21.125 38.9471ZM31.1263 35.8733C30.9425 34.7786 29.9844 29.5418 27.6403 23.0948C33.2656 22.2075 38.1849 23.6644 38.7991 23.8691C38.4171 26.2913 37.538 28.6082 36.2171 30.6741C34.8961 32.74 33.162 34.5102 31.1236 35.8733H31.1263Z" fill="#FCB900"/>
</g>
<defs>
<clipPath id="clip0_58_91">
<rect width="42" height="42" fill="white" transform="translate(0.125)"/>
</clipPath>
</defs>
</svg>
