<svg width="43" height="42" viewBox="0 0 43 42" fill="none" xmlns="http://www.w3.org/2000/svg">
<g clip-path="url(#clip0_58_81)">
<path d="M21.625 0C15.9261 0 15.2095 0.02625 12.9704 0.126C10.7312 0.231 9.20613 0.58275 7.87 1.1025C6.46784 1.62835 5.19812 2.45542 4.15038 3.52538C3.08042 4.57312 2.25335 5.84284 1.7275 7.245C1.20775 8.5785 0.853375 10.1062 0.751 12.3375C0.65125 14.5819 0.625 15.2959 0.625 21.0026C0.625 26.7041 0.65125 27.4181 0.751 29.6573C0.856 31.8938 1.20775 33.4189 1.7275 34.755C2.26562 36.1357 2.98225 37.3065 4.15038 38.4746C5.31588 39.6427 6.48663 40.362 7.86738 40.8975C9.20613 41.4173 10.7286 41.7716 12.9651 41.874C15.2069 41.9737 15.9209 42 21.625 42C27.3291 42 28.0405 41.9737 30.2823 41.874C32.5161 41.769 34.0465 41.4173 35.3826 40.8975C36.7838 40.3713 38.0526 39.5443 39.0996 38.4746C40.2677 37.3065 40.9844 36.1357 41.5225 34.755C42.0396 33.4189 42.394 31.8938 42.499 29.6573C42.5987 27.4181 42.625 26.7041 42.625 21C42.625 15.2959 42.5987 14.5819 42.499 12.3401C42.394 10.1063 42.0396 8.5785 41.5225 7.245C40.9966 5.84284 40.1696 4.57312 39.0996 3.52538C38.0519 2.45542 36.7822 1.62835 35.38 1.1025C34.0412 0.58275 32.5135 0.228375 30.2796 0.126C28.0379 0.02625 27.3265 0 21.6198 0H21.625ZM19.7429 3.78525H21.6276C27.2346 3.78525 27.8988 3.80363 30.1116 3.906C32.1591 3.99787 33.2721 4.34175 34.0124 4.62787C34.9915 5.0085 35.6924 5.46525 36.4274 6.20025C37.1624 6.93525 37.6165 7.6335 37.9971 8.61525C38.2859 9.35287 38.6271 10.4659 38.719 12.5134C38.8214 14.7263 38.8424 15.3904 38.8424 20.9948C38.8424 26.5991 38.8214 27.2659 38.719 29.4787C38.6271 31.5262 38.2833 32.6366 37.9971 33.3769C37.6581 34.2875 37.121 35.1115 36.4247 35.7892C35.6898 36.5243 34.9915 36.9784 34.0098 37.359C33.2747 37.6478 32.1617 37.989 30.1116 38.0835C27.8988 38.1833 27.2346 38.2069 21.6276 38.2069C16.0206 38.2069 15.3539 38.1833 13.141 38.0835C11.0935 37.989 9.98312 37.6478 9.24288 37.359C8.33156 37.021 7.5067 36.4849 6.82787 35.7892C6.13034 35.111 5.59236 34.286 5.25287 33.3742C4.96675 32.6366 4.62287 31.5236 4.531 29.4761C4.43125 27.2633 4.41025 26.5991 4.41025 20.9895C4.41025 15.3799 4.43125 14.721 4.531 12.5081C4.6255 10.4606 4.96675 9.34762 5.2555 8.60738C5.63613 7.62825 6.09288 6.92737 6.82787 6.19237C7.56287 5.45738 8.26113 5.00325 9.24288 4.62262C9.98312 4.33388 11.0935 3.99262 13.141 3.89812C15.0782 3.80888 15.829 3.78263 19.7429 3.78V3.78525ZM32.8364 7.27125C32.5054 7.27125 32.1778 7.33643 31.872 7.46307C31.5663 7.58972 31.2885 7.77534 31.0545 8.00934C30.8205 8.24334 30.6348 8.52115 30.5082 8.82689C30.3816 9.13263 30.3164 9.46032 30.3164 9.79125C30.3164 10.1222 30.3816 10.4499 30.5082 10.7556C30.6348 11.0614 30.8205 11.3392 31.0545 11.5732C31.2885 11.8072 31.5663 11.9928 31.872 12.1194C32.1778 12.2461 32.5054 12.3112 32.8364 12.3112C33.5047 12.3112 34.1457 12.0458 34.6183 11.5732C35.0909 11.1006 35.3564 10.4596 35.3564 9.79125C35.3564 9.1229 35.0909 8.48193 34.6183 8.00934C34.1457 7.53675 33.5047 7.27125 32.8364 7.27125ZM21.6276 10.2165C20.1972 10.1942 18.7766 10.4566 17.4486 10.9886C16.1205 11.5206 14.9116 12.3114 13.8921 13.3151C12.8727 14.3188 12.0631 15.5152 11.5105 16.8348C10.9578 18.1544 10.6732 19.5707 10.6732 21.0013C10.6732 22.4319 10.9578 23.8482 11.5105 25.1678C12.0631 26.4874 12.8727 27.6838 13.8921 28.6875C14.9116 29.6912 16.1205 30.482 17.4486 31.014C18.7766 31.546 20.1972 31.8084 21.6276 31.7861C24.4588 31.742 27.1591 30.5863 29.1456 28.5685C31.1321 26.5508 32.2455 23.8328 32.2455 21.0013C32.2455 18.1698 31.1321 15.4518 29.1456 13.4341C27.1591 11.4164 24.4588 10.2607 21.6276 10.2165ZM21.6276 13.9991C22.547 13.9991 23.4574 14.1802 24.3067 14.532C25.1561 14.8839 25.9279 15.3995 26.578 16.0496C27.2281 16.6997 27.7438 17.4715 28.0956 18.3209C28.4474 19.1703 28.6285 20.0806 28.6285 21C28.6285 21.9194 28.4474 22.8297 28.0956 23.6791C27.7438 24.5285 27.2281 25.3003 26.578 25.9504C25.9279 26.6005 25.1561 27.1161 24.3067 27.468C23.4574 27.8198 22.547 28.0009 21.6276 28.0009C19.7709 28.0009 17.9902 27.2633 16.6773 25.9504C15.3643 24.6374 14.6267 22.8567 14.6267 21C14.6267 19.1433 15.3643 17.3626 16.6773 16.0496C17.9902 14.7367 19.7709 13.9991 21.6276 13.9991Z" fill="#FCB900"/>
</g>
<defs>
<clipPath id="clip0_58_81">
<rect width="42" height="42" fill="white" transform="translate(0.625)"/>
</clipPath>
</defs>
</svg>
