<svg width="43" height="42" viewBox="0 0 43 42" fill="none" xmlns="http://www.w3.org/2000/svg">
<g clip-path="url(#clip0_58_86)">
<path d="M0.375 3.00825C0.375 1.34663 1.75575 0 3.45937 0H39.2906C40.9943 0 42.375 1.34663 42.375 3.00825V38.9917C42.375 40.6534 40.9943 42 39.2906 42H3.45937C1.75575 42 0.375 40.6534 0.375 38.9917V3.00825ZM13.3504 35.1592V16.1936H7.04775V35.1592H13.3504ZM10.2004 13.6028C12.3975 13.6028 13.7651 12.1485 13.7651 10.3267C13.7257 8.46562 12.4001 7.05075 10.2424 7.05075C8.08463 7.05075 6.675 8.46825 6.675 10.3267C6.675 12.1485 8.04262 13.6028 10.1584 13.6028H10.2004ZM23.0839 35.1592V24.5674C23.0839 24.0004 23.1259 23.4334 23.2939 23.0291C23.748 21.8977 24.7849 20.7244 26.5279 20.7244C28.809 20.7244 29.7199 22.4621 29.7199 25.0136V35.1592H36.0225V24.2812C36.0225 18.4538 32.9145 15.7448 28.767 15.7448C25.4228 15.7448 23.9239 17.5823 23.0839 18.8764V18.942H23.0419L23.0839 18.8764V16.1936H16.7839C16.8626 17.9734 16.7839 35.1592 16.7839 35.1592H23.0839Z" fill="#FCB900"/>
</g>
<defs>
<clipPath id="clip0_58_86">
<rect width="42" height="42" fill="white" transform="translate(0.375)"/>
</clipPath>
</defs>
</svg>
