<svg width="32" height="31" viewBox="0 0 32 31" fill="none" xmlns="http://www.w3.org/2000/svg">
<path fill-rule="evenodd" clip-rule="evenodd" d="M5.27246 23.25C5.27246 22.9931 5.37453 22.7467 5.5562 22.565C5.73788 22.3833 5.98428 22.2812 6.24121 22.2812H25.6162C25.8731 22.2812 26.1195 22.3833 26.3012 22.565C26.4829 22.7467 26.585 22.9931 26.585 23.25C26.585 23.5069 26.4829 23.7533 26.3012 23.935C26.1195 24.1167 25.8731 24.2188 25.6162 24.2188H6.24121C5.98428 24.2188 5.73788 24.1167 5.5562 23.935C5.37453 23.7533 5.27246 23.5069 5.27246 23.25ZM5.27246 15.5C5.27246 15.2431 5.37453 14.9967 5.5562 14.815C5.73788 14.6333 5.98428 14.5312 6.24121 14.5312H25.6162C25.8731 14.5312 26.1195 14.6333 26.3012 14.815C26.4829 14.9967 26.585 15.2431 26.585 15.5C26.585 15.7569 26.4829 16.0033 26.3012 16.185C26.1195 16.3667 25.8731 16.4688 25.6162 16.4688H6.24121C5.98428 16.4688 5.73788 16.3667 5.5562 16.185C5.37453 16.0033 5.27246 15.7569 5.27246 15.5ZM5.27246 7.75C5.27246 7.49307 5.37453 7.24667 5.5562 7.06499C5.73788 6.88331 5.98428 6.78125 6.24121 6.78125H25.6162C25.8731 6.78125 26.1195 6.88331 26.3012 7.06499C26.4829 7.24667 26.585 7.49307 26.585 7.75C26.585 8.00693 26.4829 8.25333 26.3012 8.43501C26.1195 8.61669 25.8731 8.71875 25.6162 8.71875H6.24121C5.98428 8.71875 5.73788 8.61669 5.5562 8.43501C5.37453 8.25333 5.27246 8.00693 5.27246 7.75Z" fill="#4C4D52"/>
</svg>
