<svg width="33" height="33" viewBox="0 0 33 33" fill="none" xmlns="http://www.w3.org/2000/svg">
<g clip-path="url(#clip0_23_69)">
<path d="M29.1225 20.9611L32.6597 22.7308C33.1134 22.9576 33.1134 23.6053 32.6597 23.8321L17.0507 31.6387C16.8796 31.7237 16.6911 31.768 16.5 31.768C16.3089 31.768 16.1204 31.7237 15.9493 31.6387L0.340316 23.8321C0.238349 23.7807 0.152654 23.702 0.0927793 23.6048C0.0329045 23.5076 0.00120097 23.3956 0.00120097 23.2815C0.00120097 23.1673 0.0329045 23.0553 0.0927793 22.9581C0.152654 22.8609 0.238349 22.7822 0.340316 22.7308L3.87957 20.9611L14.8459 26.4453C15.8874 26.9651 17.1146 26.9651 18.1541 26.4453L29.1204 20.9591L29.1225 20.9611ZM15.9493 0.129891C16.1204 0.0448599 16.3089 0.000610352 16.5 0.000610352C16.6911 0.000610352 16.8796 0.0448599 17.0507 0.129891L32.6597 7.93439C32.7616 7.98612 32.8471 8.06505 32.9069 8.16243C32.9667 8.25981 32.9983 8.37185 32.9983 8.48611C32.9983 8.60037 32.9667 8.71241 32.9069 8.80979C32.8471 8.90717 32.7616 8.9861 32.6597 9.03783L17.0507 16.8403C16.8796 16.9253 16.6911 16.9695 16.5 16.9695C16.3089 16.9695 16.1204 16.9253 15.9493 16.8403L0.340316 9.03783C0.237808 8.98664 0.151589 8.9079 0.0913277 8.81045C0.0310662 8.713 -0.000854492 8.60069 -0.000854492 8.48611C-0.000854492 8.37153 0.0310662 8.25922 0.0913277 8.16177C0.151589 8.06432 0.237808 7.98558 0.340316 7.93439L15.9493 0.129891Z" fill="#16B666"/>
<path d="M29.1225 13.563L32.6597 15.3326C33.1134 15.5595 33.1134 16.2071 32.6597 16.434L17.0507 24.2385C16.8796 24.3235 16.6911 24.3678 16.5 24.3678C16.3089 24.3678 16.1204 24.3235 15.9493 24.2385L0.34032 16.434C0.238353 16.3826 0.152659 16.3039 0.0927838 16.2067C0.032909 16.1094 0.00120544 15.9975 0.00120544 15.8833C0.00120544 15.7691 0.032909 15.6572 0.0927838 15.5599C0.152659 15.4627 0.238353 15.384 0.34032 15.3326L3.87957 13.563L14.8459 19.0472C15.8874 19.5669 17.1146 19.5669 18.1541 19.0472L29.1225 13.563Z" fill="#16B666"/>
</g>
<defs>
<clipPath id="clip0_23_69">
<rect width="33" height="33" fill="white"/>
</clipPath>
</defs>
</svg>
