<svg width="33" height="33" viewBox="0 0 33 33" fill="none" xmlns="http://www.w3.org/2000/svg">
<path fill-rule="evenodd" clip-rule="evenodd" d="M21.9574 1.33239C22.0532 1.23635 22.167 1.16016 22.2922 1.10817C22.4175 1.05618 22.5518 1.02942 22.6875 1.02942C22.8231 1.02942 22.9574 1.05618 23.0827 1.10817C23.208 1.16016 23.3218 1.23635 23.4176 1.33239L31.6676 9.58239C31.7637 9.67818 31.8398 9.79198 31.8918 9.91727C31.9438 10.0426 31.9706 10.1769 31.9706 10.3125C31.9706 10.4482 31.9438 10.5825 31.8918 10.7078C31.8398 10.833 31.7637 10.9468 31.6676 11.0426L27.7447 14.9655L26.0349 21.7986C25.9049 22.3189 25.6419 22.7964 25.2716 23.1844C24.9013 23.5724 24.4366 23.8575 23.9229 24.0116L2.58636 30.4136L8.98836 9.07501C9.14268 8.56199 9.42756 8.09782 9.81514 7.72797C10.2027 7.35811 10.6797 7.09523 11.1994 6.96508L18.0324 5.25733L21.9574 1.33239ZM18.2449 7.33014L11.7006 8.9657C11.5268 9.00906 11.3674 9.0969 11.2379 9.22058C11.1085 9.34426 11.0134 9.49952 10.9622 9.67107L5.66155 27.3364L23.331 22.0358C23.5015 21.9841 23.6558 21.8891 23.7787 21.76C23.9016 21.631 23.9889 21.4723 24.0322 21.2994L25.6699 14.7531L18.2449 7.33014Z" fill="#16B666"/>
<path fill-rule="evenodd" clip-rule="evenodd" d="M5.84101 27.2828L16.5 18.5625C16.9079 18.5625 17.3067 18.4415 17.6459 18.2149C17.9851 17.9883 18.2494 17.6662 18.4055 17.2893C18.5616 16.9124 18.6025 16.4977 18.5229 16.0976C18.4433 15.6975 18.2469 15.33 17.9584 15.0416C17.67 14.7531 17.3025 14.5567 16.9024 14.4771C16.5023 14.3975 16.0876 14.4384 15.7107 14.5945C15.3339 14.7506 15.0117 15.015 14.7851 15.3541C14.5585 15.6933 14.4375 16.0921 14.4375 16.5L5.71726 27.159L5.66364 27.3364L5.84101 27.2828Z" fill="#16B666"/>
</svg>
